<svg id="svg" version="1.1" xmlns="http://www.w3.org/2000/svg" xmlns:xlink="http://www.w3.org/1999/xlink" width="400" height="400" viewBox="0, 0, 400,400"><g id="svgg"><path id="path0" d="M185.400 2.400 C 185.260 2.627,183.263 2.800,180.776 2.800 C 178.125 2.800,176.400 2.958,176.400 3.200 C 176.400 3.428,175.208 3.600,173.624 3.600 C 172.097 3.600,170.736 3.780,170.600 4.000 C 170.464 4.220,169.193 4.400,167.776 4.400 C 166.325 4.400,165.200 4.575,165.200 4.800 C 165.200 5.020,164.300 5.200,163.200 5.200 C 162.100 5.200,161.200 5.380,161.200 5.600 C 161.200 5.820,160.401 6.000,159.424 6.000 C 158.447 6.000,157.536 6.180,157.400 6.400 C 157.264 6.620,156.454 6.800,155.600 6.800 C 154.746 6.800,153.936 6.980,153.800 7.200 C 153.664 7.420,152.944 7.600,152.200 7.600 C 151.456 7.600,150.736 7.780,150.600 8.000 C 150.464 8.220,149.733 8.400,148.976 8.400 C 148.219 8.400,147.600 8.580,147.600 8.800 C 147.600 9.020,146.880 9.200,146.000 9.200 C 145.120 9.200,144.400 9.380,144.400 9.600 C 144.400 9.820,143.860 10.000,143.200 10.000 C 142.540 10.000,142.000 10.180,142.000 10.400 C 142.000 10.620,141.471 10.800,140.824 10.800 C 140.177 10.800,139.536 10.980,139.400 11.200 C 139.264 11.420,138.724 11.600,138.200 11.600 C 137.676 11.600,137.136 11.780,137.000 12.000 C 136.864 12.220,136.324 12.400,135.800 12.400 C 135.276 12.400,134.736 12.580,134.600 12.800 C 134.464 13.020,133.913 13.200,133.376 13.200 C 132.839 13.200,132.400 13.380,132.400 13.600 C 132.400 13.820,132.038 14.000,131.595 14.000 C 131.152 14.000,130.432 14.180,129.995 14.400 C 129.558 14.620,128.842 14.980,128.405 15.200 C 127.968 15.420,127.248 15.600,126.805 15.600 C 126.362 15.600,126.000 15.780,126.000 16.000 C 126.000 16.220,125.728 16.400,125.395 16.400 C 125.062 16.400,124.432 16.580,123.995 16.800 C 123.558 17.020,122.842 17.380,122.405 17.600 C 121.968 17.820,121.338 18.000,121.005 18.000 C 120.672 18.000,120.400 18.180,120.400 18.400 C 120.400 18.620,120.051 18.800,119.624 18.800 C 119.197 18.800,118.736 18.980,118.600 19.200 C 118.464 19.420,117.913 19.600,117.376 19.600 C 116.839 19.600,116.400 19.780,116.400 20.000 C 116.400 20.220,116.040 20.400,115.600 20.400 C 115.160 20.400,114.800 20.580,114.800 20.800 C 114.800 21.020,114.440 21.200,114.000 21.200 C 113.560 21.200,113.200 21.380,113.200 21.600 C 113.200 21.820,112.840 22.000,112.400 22.000 C 111.960 22.000,111.600 22.180,111.600 22.400 C 111.600 22.620,111.240 22.800,110.800 22.800 C 110.360 22.800,110.000 22.980,110.000 23.200 C 110.000 23.420,109.640 23.600,109.200 23.600 C 108.760 23.600,108.400 23.780,108.400 24.000 C 108.400 24.220,108.040 24.400,107.600 24.400 C 107.160 24.400,106.800 24.580,106.800 24.800 C 106.800 25.020,106.522 25.200,106.183 25.200 C 105.844 25.200,105.180 25.560,104.708 26.000 C 104.236 26.440,103.613 26.800,103.325 26.800 C 103.036 26.800,102.800 26.980,102.800 27.200 C 102.800 27.420,102.440 27.600,102.000 27.600 C 101.560 27.600,101.200 27.780,101.200 28.000 C 101.200 28.220,100.922 28.400,100.583 28.400 C 100.244 28.400,99.580 28.760,99.108 29.200 C 98.636 29.640,98.013 30.000,97.725 30.000 C 97.436 30.000,97.200 30.180,97.200 30.400 C 97.200 30.620,96.880 30.800,96.488 30.800 C 96.097 30.800,95.517 31.160,95.200 31.600 C 94.883 32.040,94.303 32.400,93.912 32.400 C 93.520 32.400,93.200 32.550,93.200 32.732 C 93.200 32.915,92.705 33.320,92.100 33.632 C 91.495 33.945,90.651 34.515,90.225 34.900 C 89.798 35.285,89.213 35.600,88.925 35.600 C 88.636 35.600,88.400 35.750,88.400 35.932 C 88.400 36.115,87.905 36.519,87.300 36.830 C 86.695 37.140,85.909 37.711,85.553 38.097 C 85.197 38.484,84.678 38.800,84.400 38.800 C 84.122 38.800,83.603 39.124,83.247 39.519 C 82.891 39.914,81.970 40.675,81.200 41.208 C 80.430 41.742,79.451 42.498,79.025 42.889 C 78.598 43.280,78.103 43.600,77.925 43.600 C 77.747 43.600,76.859 44.320,75.952 45.200 C 75.045 46.080,74.154 46.800,73.971 46.800 C 73.788 46.800,72.774 47.655,71.718 48.700 C 70.662 49.745,68.813 51.410,67.609 52.400 C 64.765 54.738,54.716 64.790,52.404 67.609 C 51.416 68.814,50.155 70.250,49.603 70.800 C 49.050 71.350,48.084 72.488,47.456 73.330 C 46.828 74.171,45.703 75.470,44.957 76.216 C 44.211 76.963,43.600 77.725,43.600 77.911 C 43.600 78.097,43.280 78.598,42.889 79.025 C 42.498 79.451,41.742 80.430,41.208 81.200 C 40.675 81.970,39.914 82.891,39.519 83.247 C 39.124 83.603,38.800 84.122,38.800 84.400 C 38.800 84.678,38.484 85.197,38.097 85.553 C 37.711 85.909,37.140 86.695,36.830 87.300 C 36.519 87.905,36.115 88.400,35.932 88.400 C 35.750 88.400,35.600 88.636,35.600 88.925 C 35.600 89.213,35.285 89.798,34.900 90.225 C 34.515 90.651,33.945 91.495,33.632 92.100 C 33.320 92.705,32.915 93.200,32.732 93.200 C 32.550 93.200,32.400 93.520,32.400 93.912 C 32.400 94.303,32.040 94.883,31.600 95.200 C 31.160 95.517,30.800 96.097,30.800 96.488 C 30.800 96.880,30.620 97.200,30.400 97.200 C 30.180 97.200,30.000 97.436,30.000 97.725 C 30.000 98.013,29.640 98.636,29.200 99.108 C 28.760 99.580,28.400 100.244,28.400 100.583 C 28.400 100.922,28.220 101.200,28.000 101.200 C 27.780 101.200,27.600 101.560,27.600 102.000 C 27.600 102.440,27.420 102.800,27.200 102.800 C 26.980 102.800,26.800 103.036,26.800 103.325 C 26.800 103.613,26.440 104.236,26.000 104.708 C 25.560 105.180,25.200 105.844,25.200 106.183 C 25.200 106.522,25.020 106.800,24.800 106.800 C 24.580 106.800,24.400 107.160,24.400 107.600 C 24.400 108.040,24.220 108.400,24.000 108.400 C 23.780 108.400,23.600 108.760,23.600 109.200 C 23.600 109.640,23.420 110.000,23.200 110.000 C 22.980 110.000,22.800 110.360,22.800 110.800 C 22.800 111.240,22.620 111.600,22.400 111.600 C 22.180 111.600,22.000 111.960,22.000 112.400 C 22.000 112.840,21.820 113.200,21.600 113.200 C 21.380 113.200,21.200 113.560,21.200 114.000 C 21.200 114.440,21.020 114.800,20.800 114.800 C 20.580 114.800,20.400 115.160,20.400 115.600 C 20.400 116.040,20.220 116.400,20.000 116.400 C 19.780 116.400,19.600 116.839,19.600 117.376 C 19.600 117.913,19.420 118.464,19.200 118.600 C 18.980 118.736,18.800 119.197,18.800 119.624 C 18.800 120.051,18.620 120.400,18.400 120.400 C 18.180 120.400,18.000 120.672,18.000 121.005 C 18.000 121.338,17.820 121.968,17.600 122.405 C 17.380 122.842,17.020 123.558,16.800 123.995 C 16.580 124.432,16.400 125.062,16.400 125.395 C 16.400 125.728,16.220 126.000,16.000 126.000 C 15.780 126.000,15.600 126.362,15.600 126.805 C 15.600 127.583,15.458 127.969,14.462 129.895 C 14.208 130.387,14.000 131.152,14.000 131.595 C 14.000 132.038,13.820 132.400,13.600 132.400 C 13.380 132.400,13.200 132.839,13.200 133.376 C 13.200 133.913,13.020 134.464,12.800 134.600 C 12.580 134.736,12.400 135.276,12.400 135.800 C 12.400 136.324,12.220 136.864,12.000 137.000 C 11.780 137.136,11.600 137.676,11.600 138.200 C 11.600 138.724,11.420 139.264,11.200 139.400 C 10.980 139.536,10.800 140.177,10.800 140.824 C 10.800 141.471,10.620 142.000,10.400 142.000 C 10.180 142.000,10.000 142.540,10.000 143.200 C 10.000 143.860,9.820 144.400,9.600 144.400 C 9.380 144.400,9.200 145.120,9.200 146.000 C 9.200 146.880,9.020 147.600,8.800 147.600 C 8.580 147.600,8.400 148.219,8.400 148.976 C 8.400 149.733,8.220 150.464,8.000 150.600 C 7.780 150.736,7.600 151.456,7.600 152.200 C 7.600 152.944,7.420 153.664,7.200 153.800 C 6.980 153.936,6.800 154.746,6.800 155.600 C 6.800 156.454,6.620 157.264,6.400 157.400 C 6.180 157.536,6.000 158.447,6.000 159.424 C 6.000 160.401,5.820 161.200,5.600 161.200 C 5.380 161.200,5.200 162.100,5.200 163.200 C 5.200 164.300,5.020 165.200,4.800 165.200 C 4.575 165.200,4.400 166.325,4.400 167.776 C 4.400 169.193,4.220 170.464,4.000 170.600 C 3.780 170.736,3.600 172.097,3.600 173.624 C 3.600 175.208,3.428 176.400,3.200 176.400 C 2.958 176.400,2.800 178.125,2.800 180.776 C 2.800 183.263,2.627 185.260,2.400 185.400 C 1.853 185.738,1.853 214.262,2.400 214.600 C 2.627 214.740,2.800 216.737,2.800 219.224 C 2.800 221.875,2.958 223.600,3.200 223.600 C 3.428 223.600,3.600 224.792,3.600 226.376 C 3.600 227.903,3.780 229.264,4.000 229.400 C 4.220 229.536,4.400 230.807,4.400 232.224 C 4.400 233.675,4.575 234.800,4.800 234.800 C 5.020 234.800,5.200 235.700,5.200 236.800 C 5.200 237.900,5.380 238.800,5.600 238.800 C 5.820 238.800,6.000 239.599,6.000 240.576 C 6.000 241.553,6.180 242.464,6.400 242.600 C 6.620 242.736,6.800 243.546,6.800 244.400 C 6.800 245.254,6.980 246.064,7.200 246.200 C 7.420 246.336,7.600 247.056,7.600 247.800 C 7.600 248.544,7.780 249.264,8.000 249.400 C 8.220 249.536,8.400 250.267,8.400 251.024 C 8.400 251.781,8.580 252.400,8.800 252.400 C 9.020 252.400,9.200 253.120,9.200 254.000 C 9.200 254.880,9.380 255.600,9.600 255.600 C 9.820 255.600,10.000 256.140,10.000 256.800 C 10.000 257.460,10.180 258.000,10.400 258.000 C 10.620 258.000,10.800 258.529,10.800 259.176 C 10.800 259.823,10.980 260.464,11.200 260.600 C 11.420 260.736,11.600 261.276,11.600 261.800 C 11.600 262.324,11.780 262.864,12.000 263.000 C 12.220 263.136,12.400 263.676,12.400 264.200 C 12.400 264.724,12.580 265.264,12.800 265.400 C 13.020 265.536,13.200 266.087,13.200 266.624 C 13.200 267.161,13.380 267.600,13.600 267.600 C 13.820 267.600,14.000 267.962,14.000 268.405 C 14.000 268.848,14.208 269.613,14.462 270.105 C 15.458 272.031,15.600 272.417,15.600 273.195 C 15.600 273.638,15.780 274.000,16.000 274.000 C 16.220 274.000,16.400 274.272,16.400 274.605 C 16.400 274.938,16.580 275.568,16.800 276.005 C 17.020 276.442,17.380 277.158,17.600 277.595 C 17.820 278.032,18.000 278.662,18.000 278.995 C 18.000 279.328,18.180 279.600,18.400 279.600 C 18.620 279.600,18.800 279.949,18.800 280.376 C 18.800 280.803,18.980 281.264,19.200 281.400 C 19.420 281.536,19.600 282.087,19.600 282.624 C 19.600 283.161,19.780 283.600,20.000 283.600 C 20.220 283.600,20.400 283.960,20.400 284.400 C 20.400 284.840,20.580 285.200,20.800 285.200 C 21.020 285.200,21.200 285.560,21.200 286.000 C 21.200 286.440,21.380 286.800,21.600 286.800 C 21.820 286.800,22.000 287.160,22.000 287.600 C 22.000 288.040,22.180 288.400,22.400 288.400 C 22.620 288.400,22.800 288.760,22.800 289.200 C 22.800 289.640,22.980 290.000,23.200 290.000 C 23.420 290.000,23.600 290.360,23.600 290.800 C 23.600 291.240,23.780 291.600,24.000 291.600 C 24.220 291.600,24.400 291.960,24.400 292.400 C 24.400 292.840,24.580 293.200,24.800 293.200 C 25.020 293.200,25.200 293.478,25.200 293.817 C 25.200 294.156,25.560 294.820,26.000 295.292 C 26.440 295.764,26.800 296.387,26.800 296.675 C 26.800 296.964,26.980 297.200,27.200 297.200 C 27.420 297.200,27.600 297.560,27.600 298.000 C 27.600 298.440,27.780 298.800,28.000 298.800 C 28.220 298.800,28.400 299.078,28.400 299.417 C 28.400 299.756,28.760 300.420,29.200 300.892 C 29.640 301.364,30.000 301.987,30.000 302.275 C 30.000 302.564,30.180 302.800,30.400 302.800 C 30.620 302.800,30.800 303.120,30.800 303.512 C 30.800 303.903,31.160 304.483,31.600 304.800 C 32.040 305.117,32.400 305.697,32.400 306.088 C 32.400 306.480,32.550 306.800,32.732 306.800 C 32.915 306.800,33.320 307.295,33.632 307.900 C 33.945 308.505,34.515 309.349,34.900 309.775 C 35.285 310.202,35.600 310.787,35.600 311.075 C 35.600 311.364,35.750 311.600,35.932 311.600 C 36.115 311.600,36.519 312.095,36.830 312.700 C 37.140 313.305,37.711 314.091,38.097 314.447 C 38.484 314.803,38.800 315.322,38.800 315.600 C 38.800 315.878,39.124 316.397,39.519 316.753 C 39.914 317.109,40.675 318.030,41.208 318.800 C 41.742 319.570,42.498 320.549,42.889 320.975 C 43.280 321.402,43.600 321.903,43.600 322.089 C 43.600 322.275,44.211 323.037,44.957 323.784 C 45.703 324.530,46.828 325.829,47.456 326.670 C 48.084 327.512,49.050 328.650,49.603 329.200 C 50.155 329.750,51.416 331.186,52.404 332.391 C 54.726 335.223,64.777 345.274,67.609 347.596 C 68.814 348.584,70.250 349.845,70.800 350.397 C 71.350 350.950,72.488 351.916,73.330 352.544 C 74.171 353.172,75.470 354.297,76.216 355.043 C 76.963 355.789,77.725 356.400,77.911 356.400 C 78.097 356.400,78.598 356.720,79.025 357.111 C 79.451 357.502,80.430 358.258,81.200 358.792 C 81.970 359.325,82.891 360.086,83.247 360.481 C 83.603 360.876,84.122 361.200,84.400 361.200 C 84.678 361.200,85.197 361.516,85.553 361.903 C 85.909 362.289,86.695 362.860,87.300 363.170 C 87.905 363.481,88.400 363.885,88.400 364.068 C 88.400 364.250,88.636 364.400,88.925 364.400 C 89.213 364.400,89.798 364.715,90.225 365.100 C 90.651 365.485,91.495 366.055,92.100 366.368 C 92.705 366.680,93.200 367.085,93.200 367.268 C 93.200 367.450,93.520 367.600,93.912 367.600 C 94.303 367.600,94.883 367.960,95.200 368.400 C 95.517 368.840,96.097 369.200,96.488 369.200 C 96.880 369.200,97.200 369.380,97.200 369.600 C 97.200 369.820,97.436 370.000,97.725 370.000 C 98.013 370.000,98.636 370.360,99.108 370.800 C 99.580 371.240,100.244 371.600,100.583 371.600 C 100.922 371.600,101.200 371.780,101.200 372.000 C 101.200 372.220,101.560 372.400,102.000 372.400 C 102.440 372.400,102.800 372.580,102.800 372.800 C 102.800 373.020,103.036 373.200,103.325 373.200 C 103.613 373.200,104.236 373.560,104.708 374.000 C 105.180 374.440,105.844 374.800,106.183 374.800 C 106.522 374.800,106.800 374.980,106.800 375.200 C 106.800 375.420,107.160 375.600,107.600 375.600 C 108.040 375.600,108.400 375.780,108.400 376.000 C 108.400 376.220,108.760 376.400,109.200 376.400 C 109.640 376.400,110.000 376.580,110.000 376.800 C 110.000 377.020,110.360 377.200,110.800 377.200 C 111.240 377.200,111.600 377.380,111.600 377.600 C 111.600 377.820,111.960 378.000,112.400 378.000 C 112.840 378.000,113.200 378.180,113.200 378.400 C 113.200 378.620,113.560 378.800,114.000 378.800 C 114.440 378.800,114.800 378.980,114.800 379.200 C 114.800 379.420,115.160 379.600,115.600 379.600 C 116.040 379.600,116.400 379.780,116.400 380.000 C 116.400 380.220,116.839 380.400,117.376 380.400 C 117.913 380.400,118.464 380.580,118.600 380.800 C 118.736 381.020,119.197 381.200,119.624 381.200 C 120.051 381.200,120.400 381.380,120.400 381.600 C 120.400 381.820,120.672 382.000,121.005 382.000 C 121.338 382.000,122.013 382.208,122.505 382.462 C 124.382 383.433,124.807 383.600,125.395 383.600 C 125.728 383.600,126.000 383.780,126.000 384.000 C 126.000 384.220,126.362 384.400,126.805 384.400 C 127.248 384.400,127.968 384.580,128.405 384.800 C 128.842 385.020,129.558 385.380,129.995 385.600 C 130.432 385.820,131.152 386.000,131.595 386.000 C 132.038 386.000,132.400 386.180,132.400 386.400 C 132.400 386.620,132.839 386.800,133.376 386.800 C 133.913 386.800,134.464 386.980,134.600 387.200 C 134.736 387.420,135.276 387.600,135.800 387.600 C 136.324 387.600,136.864 387.780,137.000 388.000 C 137.136 388.220,137.676 388.400,138.200 388.400 C 138.724 388.400,139.264 388.580,139.400 388.800 C 139.536 389.020,140.177 389.200,140.824 389.200 C 141.471 389.200,142.000 389.380,142.000 389.600 C 142.000 389.820,142.540 390.000,143.200 390.000 C 143.860 390.000,144.400 390.180,144.400 390.400 C 144.400 390.620,145.120 390.800,146.000 390.800 C 146.880 390.800,147.600 390.980,147.600 391.200 C 147.600 391.420,148.219 391.600,148.976 391.600 C 149.733 391.600,150.464 391.780,150.600 392.000 C 150.736 392.220,151.456 392.400,152.200 392.400 C 152.944 392.400,153.664 392.580,153.800 392.800 C 153.936 393.020,154.746 393.200,155.600 393.200 C 156.454 393.200,157.264 393.380,157.400 393.600 C 157.536 393.820,158.447 394.000,159.424 394.000 C 160.401 394.000,161.200 394.180,161.200 394.400 C 161.200 394.620,162.100 394.800,163.200 394.800 C 164.300 394.800,165.200 394.980,165.200 395.200 C 165.200 395.425,166.325 395.600,167.776 395.600 C 169.193 395.600,170.464 395.780,170.600 396.000 C 170.736 396.220,172.097 396.400,173.624 396.400 C 175.208 396.400,176.400 396.572,176.400 396.800 C 176.400 397.042,178.125 397.200,180.776 397.200 C 183.263 397.200,185.260 397.373,185.400 397.600 C 185.738 398.147,214.262 398.147,214.600 397.600 C 214.740 397.373,216.737 397.200,219.224 397.200 C 221.875 397.200,223.600 397.042,223.600 396.800 C 223.600 396.580,224.590 396.400,225.800 396.400 C 227.623 396.400,228.000 396.281,228.000 395.705 C 228.000 395.316,210.890 377.896,189.185 356.187 C 167.836 334.834,150.496 317.237,150.651 317.082 C 150.806 316.927,175.478 316.800,205.477 316.800 L 260.020 316.800 259.910 310.500 L 259.800 304.200 258.000 304.000 L 256.200 303.800 256.000 280.000 L 255.800 256.200 250.600 256.178 C 246.508 256.161,246.295 256.182,249.600 256.277 C 251.910 256.343,254.205 256.492,254.700 256.607 L 255.600 256.815 255.606 280.308 C 255.613 305.846,255.509 304.683,257.805 304.870 L 259.400 305.000 259.511 310.700 L 259.622 316.400 204.811 316.400 L 150.000 316.400 150.000 310.643 C 150.000 304.360,149.984 304.400,152.430 304.400 L 153.594 304.400 153.697 280.500 L 153.800 256.600 158.800 256.488 L 163.800 256.377 163.800 253.288 C 163.800 246.981,165.322 245.870,174.328 245.600 L 181.000 245.400 181.124 243.209 C 181.287 240.339,181.065 240.413,189.500 240.406 L 196.800 240.400 196.800 231.699 L 196.800 222.998 170.176 196.399 C 137.941 164.195,136.697 162.753,130.993 151.000 C 124.973 138.598,122.400 127.008,122.400 112.299 C 122.400 102.010,120.230 103.200,138.993 103.200 L 154.759 103.200 155.432 100.800 L 156.105 98.400 204.753 98.405 L 253.400 98.411 255.750 100.805 L 258.100 103.200 272.148 103.200 L 286.196 103.200 341.587 158.500 C 372.052 188.915,397.041 214.027,397.119 214.305 C 397.197 214.583,397.427 214.707,397.630 214.581 C 398.149 214.261,398.120 185.721,397.600 185.400 C 397.373 185.260,397.200 183.263,397.200 180.776 C 397.200 178.125,397.042 176.400,396.800 176.400 C 396.572 176.400,396.400 175.208,396.400 173.624 C 396.400 172.097,396.220 170.736,396.000 170.600 C 395.780 170.464,395.600 169.193,395.600 167.776 C 395.600 166.325,395.425 165.200,395.200 165.200 C 394.980 165.200,394.800 164.300,394.800 163.200 C 394.800 162.100,394.620 161.200,394.400 161.200 C 394.180 161.200,394.000 160.401,394.000 159.424 C 394.000 158.447,393.820 157.536,393.600 157.400 C 393.380 157.264,393.200 156.454,393.200 155.600 C 393.200 154.746,393.020 153.936,392.800 153.800 C 392.580 153.664,392.400 152.944,392.400 152.200 C 392.400 151.456,392.220 150.736,392.000 150.600 C 391.780 150.464,391.600 149.733,391.600 148.976 C 391.600 148.219,391.420 147.600,391.200 147.600 C 390.980 147.600,390.800 146.880,390.800 146.000 C 390.800 145.120,390.620 144.400,390.400 144.400 C 390.180 144.400,390.000 143.860,390.000 143.200 C 390.000 142.540,389.820 142.000,389.600 142.000 C 389.380 142.000,389.200 141.471,389.200 140.824 C 389.200 140.177,389.020 139.536,388.800 139.400 C 388.580 139.264,388.400 138.724,388.400 138.200 C 388.400 137.676,388.220 137.136,388.000 137.000 C 387.780 136.864,387.600 136.324,387.600 135.800 C 387.600 135.276,387.420 134.736,387.200 134.600 C 386.980 134.464,386.800 133.913,386.800 133.376 C 386.800 132.839,386.620 132.400,386.400 132.400 C 386.180 132.400,386.000 132.038,386.000 131.595 C 386.000 131.152,385.820 130.432,385.600 129.995 C 385.380 129.558,385.020 128.842,384.800 128.405 C 384.580 127.968,384.400 127.248,384.400 126.805 C 384.400 126.362,384.220 126.000,384.000 126.000 C 383.780 126.000,383.600 125.728,383.600 125.395 C 383.600 125.062,383.420 124.432,383.200 123.995 C 382.980 123.558,382.620 122.842,382.400 122.405 C 382.180 121.968,382.000 121.338,382.000 121.005 C 382.000 120.672,381.820 120.400,381.600 120.400 C 381.380 120.400,381.200 120.051,381.200 119.624 C 381.200 119.197,381.020 118.736,380.800 118.600 C 380.580 118.464,380.400 117.913,380.400 117.376 C 380.400 116.839,380.220 116.400,380.000 116.400 C 379.780 116.400,379.600 116.040,379.600 115.600 C 379.600 115.160,379.420 114.800,379.200 114.800 C 378.980 114.800,378.800 114.440,378.800 114.000 C 378.800 113.560,378.620 113.200,378.400 113.200 C 378.180 113.200,378.000 112.840,378.000 112.400 C 378.000 111.960,377.820 111.600,377.600 111.600 C 377.380 111.600,377.200 111.240,377.200 110.800 C 377.200 110.360,377.020 110.000,376.800 110.000 C 376.580 110.000,376.400 109.640,376.400 109.200 C 376.400 108.760,376.220 108.400,376.000 108.400 C 375.780 108.400,375.600 108.040,375.600 107.600 C 375.600 107.160,375.420 106.800,375.200 106.800 C 374.980 106.800,374.800 106.522,374.800 106.183 C 374.800 105.844,374.440 105.180,374.000 104.708 C 373.560 104.236,373.200 103.613,373.200 103.325 C 373.200 103.036,373.020 102.800,372.800 102.800 C 372.580 102.800,372.400 102.440,372.400 102.000 C 372.400 101.560,372.220 101.200,372.000 101.200 C 371.780 101.200,371.600 100.922,371.600 100.583 C 371.600 100.244,371.240 99.580,370.800 99.108 C 370.360 98.636,370.000 98.013,370.000 97.725 C 370.000 97.436,369.820 97.200,369.600 97.200 C 369.380 97.200,369.200 96.880,369.200 96.488 C 369.200 96.097,368.840 95.517,368.400 95.200 C 367.960 94.883,367.600 94.303,367.600 93.912 C 367.600 93.520,367.450 93.200,367.268 93.200 C 367.085 93.200,366.680 92.705,366.368 92.100 C 366.055 91.495,365.485 90.651,365.100 90.225 C 364.715 89.798,364.400 89.213,364.400 88.925 C 364.400 88.636,364.250 88.400,364.068 88.400 C 363.885 88.400,363.481 87.905,363.170 87.300 C 362.860 86.695,362.289 85.909,361.903 85.553 C 361.516 85.197,361.200 84.678,361.200 84.400 C 361.200 84.122,360.876 83.603,360.481 83.247 C 360.086 82.891,359.325 81.970,358.792 81.200 C 358.258 80.430,357.502 79.451,357.111 79.025 C 356.720 78.598,356.400 78.097,356.400 77.911 C 356.400 77.725,355.789 76.963,355.043 76.216 C 354.297 75.470,353.172 74.171,352.544 73.330 C 351.916 72.488,350.950 71.350,350.397 70.800 C 349.845 70.250,348.584 68.814,347.596 67.609 C 345.284 64.790,335.235 54.738,332.391 52.400 C 331.187 51.410,329.338 49.745,328.282 48.700 C 327.226 47.655,326.212 46.800,326.029 46.800 C 325.846 46.800,324.955 46.080,324.048 45.200 C 323.141 44.320,322.253 43.600,322.075 43.600 C 321.897 43.600,321.402 43.280,320.975 42.889 C 320.549 42.498,319.570 41.742,318.800 41.208 C 318.030 40.675,317.109 39.914,316.753 39.519 C 316.397 39.124,315.878 38.800,315.600 38.800 C 315.322 38.800,314.803 38.484,314.447 38.097 C 314.091 37.711,313.305 37.140,312.700 36.830 C 312.095 36.519,311.600 36.115,311.600 35.932 C 311.600 35.750,311.364 35.600,311.075 35.600 C 310.787 35.600,310.202 35.285,309.775 34.900 C 309.349 34.515,308.505 33.945,307.900 33.632 C 307.295 33.320,306.800 32.915,306.800 32.732 C 306.800 32.550,306.480 32.400,306.088 32.400 C 305.697 32.400,305.117 32.040,304.800 31.600 C 304.483 31.160,303.903 30.800,303.512 30.800 C 303.120 30.800,302.800 30.620,302.800 30.400 C 302.800 30.180,302.564 30.000,302.275 30.000 C 301.987 30.000,301.364 29.640,300.892 29.200 C 300.420 28.760,299.756 28.400,299.417 28.400 C 299.078 28.400,298.800 28.220,298.800 28.000 C 298.800 27.780,298.440 27.600,298.000 27.600 C 297.560 27.600,297.200 27.420,297.200 27.200 C 297.200 26.980,296.964 26.800,296.675 26.800 C 296.387 26.800,295.764 26.440,295.292 26.000 C 294.820 25.560,294.156 25.200,293.817 25.200 C 293.478 25.200,293.200 25.020,293.200 24.800 C 293.200 24.580,292.840 24.400,292.400 24.400 C 291.960 24.400,291.600 24.220,291.600 24.000 C 291.600 23.780,291.240 23.600,290.800 23.600 C 290.360 23.600,290.000 23.420,290.000 23.200 C 290.000 22.980,289.640 22.800,289.200 22.800 C 288.760 22.800,288.400 22.620,288.400 22.400 C 288.400 22.180,288.040 22.000,287.600 22.000 C 287.160 22.000,286.800 21.820,286.800 21.600 C 286.800 21.380,286.440 21.200,286.000 21.200 C 285.560 21.200,285.200 21.020,285.200 20.800 C 285.200 20.580,284.840 20.400,284.400 20.400 C 283.960 20.400,283.600 20.220,283.600 20.000 C 283.600 19.780,283.161 19.600,282.624 19.600 C 282.087 19.600,281.536 19.420,281.400 19.200 C 281.264 18.980,280.803 18.800,280.376 18.800 C 279.949 18.800,279.600 18.620,279.600 18.400 C 279.600 18.180,279.328 18.000,278.995 18.000 C 278.407 18.000,277.982 17.833,276.105 16.862 C 275.613 16.608,274.938 16.400,274.605 16.400 C 274.272 16.400,274.000 16.220,274.000 16.000 C 274.000 15.780,273.638 15.600,273.195 15.600 C 272.752 15.600,272.032 15.420,271.595 15.200 C 271.158 14.980,270.442 14.620,270.005 14.400 C 269.568 14.180,268.848 14.000,268.405 14.000 C 267.962 14.000,267.600 13.820,267.600 13.600 C 267.600 13.380,267.161 13.200,266.624 13.200 C 266.087 13.200,265.536 13.020,265.400 12.800 C 265.264 12.580,264.724 12.400,264.200 12.400 C 263.676 12.400,263.136 12.220,263.000 12.000 C 262.864 11.780,262.324 11.600,261.800 11.600 C 261.276 11.600,260.736 11.420,260.600 11.200 C 260.464 10.980,259.823 10.800,259.176 10.800 C 258.529 10.800,258.000 10.620,258.000 10.400 C 258.000 10.180,257.460 10.000,256.800 10.000 C 256.140 10.000,255.600 9.820,255.600 9.600 C 255.600 9.380,254.880 9.200,254.000 9.200 C 253.120 9.200,252.400 9.020,252.400 8.800 C 252.400 8.580,251.781 8.400,251.024 8.400 C 250.267 8.400,249.536 8.220,249.400 8.000 C 249.264 7.780,248.544 7.600,247.800 7.600 C 247.056 7.600,246.336 7.420,246.200 7.200 C 246.064 6.980,245.254 6.800,244.400 6.800 C 243.546 6.800,242.736 6.620,242.600 6.400 C 242.464 6.180,241.553 6.000,240.576 6.000 C 239.599 6.000,238.800 5.820,238.800 5.600 C 238.800 5.380,237.900 5.200,236.800 5.200 C 235.700 5.200,234.800 5.020,234.800 4.800 C 234.800 4.575,233.675 4.400,232.224 4.400 C 230.807 4.400,229.536 4.220,229.400 4.000 C 229.264 3.780,227.903 3.600,226.376 3.600 C 224.792 3.600,223.600 3.428,223.600 3.200 C 223.600 2.958,221.875 2.800,219.224 2.800 C 216.737 2.800,214.740 2.627,214.600 2.400 C 214.262 1.853,185.738 1.853,185.400 2.400 M396.400 223.000 C 396.400 223.330,396.580 223.600,396.800 223.600 C 397.020 223.600,397.200 223.330,397.200 223.000 C 397.200 222.670,397.020 222.400,396.800 222.400 C 396.580 222.400,396.400 222.670,396.400 223.000 " stroke="none" fill="#2b5b73" fill-rule="evenodd"></path><path id="path1" d="M156.246 99.298 C 156.174 99.574,155.848 100.610,155.521 101.600 L 154.926 103.400 139.251 103.505 L 123.577 103.609 123.146 104.705 C 122.594 106.109,122.941 123.319,123.584 126.400 C 123.836 127.610,124.221 129.500,124.438 130.600 C 128.639 151.851,140.565 169.685,159.000 182.285 C 162.537 184.703,171.051 188.573,176.867 190.407 C 178.921 191.055,180.091 191.756,181.962 193.461 C 185.646 196.818,189.000 199.422,193.268 202.241 C 198.103 205.434,197.745 203.541,197.385 224.028 L 197.091 240.783 189.446 240.892 L 181.800 241.000 181.600 243.400 L 181.400 245.800 174.600 246.000 C 165.551 246.266,163.790 247.549,164.080 253.667 L 164.200 256.200 204.575 256.302 C 236.611 256.383,245.016 256.300,245.269 255.902 C 246.267 254.330,245.083 249.182,243.349 247.551 C 242.383 246.642,242.025 246.591,235.269 246.400 L 228.200 246.200 228.000 243.600 L 227.800 241.000 220.000 240.800 L 212.200 240.600 212.200 222.815 L 212.200 205.030 214.400 203.515 C 221.364 198.719,223.725 196.929,226.670 194.210 C 229.848 191.276,230.075 191.147,234.802 189.583 C 267.091 178.904,288.858 144.870,286.592 108.605 L 286.305 104.009 270.452 103.905 L 254.600 103.800 254.048 102.000 C 253.744 101.010,253.364 99.930,253.204 99.600 C 252.803 98.775,156.460 98.475,156.246 99.298 M152.836 124.400 C 152.764 136.398,153.043 139.148,155.273 148.400 C 157.152 156.203,161.788 167.642,164.862 172.062 C 169.854 179.241,154.919 167.521,148.197 158.984 C 142.955 152.327,139.228 145.307,136.314 136.600 C 134.360 130.763,132.800 121.939,132.800 116.728 L 132.800 113.586 142.850 113.693 L 152.899 113.800 152.836 124.400 M276.800 117.193 C 276.800 137.494,264.289 160.941,247.318 172.446 C 243.071 175.325,242.862 175.203,245.198 171.204 C 246.655 168.709,249.600 162.681,249.600 162.194 C 249.600 162.082,249.952 161.228,250.383 160.296 C 251.473 157.932,253.126 152.863,254.195 148.600 C 255.048 145.199,255.331 143.730,256.426 137.000 C 256.713 135.235,256.830 130.391,256.741 123.900 L 256.600 113.600 266.700 113.600 L 276.800 113.600 276.800 117.193 " stroke="none" fill="#fbae1c" fill-rule="evenodd"></path><path id="path2" d="M153.867 256.667 C 153.720 256.813,153.600 267.613,153.600 280.667 L 153.600 304.400 152.433 304.400 C 149.984 304.400,150.000 304.359,150.000 310.643 L 150.000 316.400 204.811 316.400 L 259.622 316.400 259.511 310.700 L 259.400 305.000 257.805 304.870 C 255.509 304.683,255.613 305.843,255.606 280.343 C 255.601 259.325,255.534 256.860,254.967 256.643 C 254.100 256.310,154.200 256.334,153.867 256.667 " stroke="none" fill="#21a1ad" fill-rule="evenodd"></path><path id="path3" d="M254.000 99.340 C 254.000 101.547,254.963 103.200,256.247 103.200 C 258.010 103.200,257.957 102.917,255.800 100.800 C 254.810 99.828,254.000 99.171,254.000 99.340 M287.200 112.082 C 287.200 149.400,265.432 181.232,233.400 190.755 C 231.085 191.444,230.081 192.044,227.600 194.222 C 223.669 197.674,219.265 201.057,215.687 203.371 L 212.800 205.239 212.800 222.811 L 212.800 240.383 220.500 240.491 L 228.200 240.600 228.400 243.000 L 228.600 245.400 235.273 245.600 C 244.079 245.864,246.000 247.274,246.000 253.472 L 246.000 255.975 250.900 256.088 L 255.800 256.200 256.000 280.000 L 256.200 303.800 258.000 304.000 L 259.800 304.200 259.910 310.500 L 260.020 316.800 205.477 316.800 C 175.478 316.800,150.806 316.927,150.651 317.082 C 150.496 317.237,167.836 334.834,189.185 356.187 C 210.890 377.896,228.000 395.316,228.000 395.705 C 228.000 396.087,228.281 396.400,228.624 396.400 C 228.967 396.400,229.136 396.220,229.000 396.000 C 228.845 395.749,229.721 395.600,231.353 395.600 C 232.783 395.600,234.064 395.420,234.200 395.200 C 234.336 394.980,235.427 394.800,236.624 394.800 C 237.821 394.800,238.800 394.620,238.800 394.400 C 238.800 394.180,239.700 394.000,240.800 394.000 C 241.900 394.000,242.800 393.820,242.800 393.600 C 242.800 393.380,243.520 393.200,244.400 393.200 C 245.280 393.200,246.000 393.020,246.000 392.800 C 246.000 392.580,246.720 392.400,247.600 392.400 C 248.480 392.400,249.200 392.220,249.200 392.000 C 249.200 391.780,249.920 391.600,250.800 391.600 C 251.680 391.600,252.400 391.420,252.400 391.200 C 252.400 390.980,253.120 390.800,254.000 390.800 C 254.880 390.800,255.600 390.620,255.600 390.400 C 255.600 390.180,256.140 390.000,256.800 390.000 C 257.460 390.000,258.000 389.820,258.000 389.600 C 258.000 389.380,258.540 389.200,259.200 389.200 C 259.860 389.200,260.400 389.020,260.400 388.800 C 260.400 388.580,261.120 388.400,262.000 388.400 C 262.880 388.400,263.600 388.220,263.600 388.000 C 263.600 387.780,263.960 387.600,264.400 387.600 C 264.840 387.600,265.200 387.420,265.200 387.200 C 265.200 386.980,265.740 386.800,266.400 386.800 C 267.060 386.800,267.600 386.620,267.600 386.400 C 267.600 386.180,268.140 386.000,268.800 386.000 C 269.460 386.000,270.000 385.820,270.000 385.600 C 270.000 385.380,270.540 385.200,271.200 385.200 C 271.860 385.200,272.400 385.020,272.400 384.800 C 272.400 384.580,272.760 384.400,273.200 384.400 C 273.640 384.400,274.000 384.220,274.000 384.000 C 274.000 383.780,274.540 383.600,275.200 383.600 C 275.860 383.600,276.400 383.420,276.400 383.200 C 276.400 382.980,276.760 382.800,277.200 382.800 C 277.640 382.800,278.000 382.620,278.000 382.400 C 278.000 382.180,278.360 382.000,278.800 382.000 C 279.240 382.000,279.600 381.820,279.600 381.600 C 279.600 381.380,280.140 381.200,280.800 381.200 C 281.460 381.200,282.000 381.020,282.000 380.800 C 282.000 380.580,282.360 380.400,282.800 380.400 C 283.240 380.400,283.600 380.220,283.600 380.000 C 283.600 379.780,283.960 379.600,284.400 379.600 C 284.840 379.600,285.200 379.420,285.200 379.200 C 285.200 378.980,285.560 378.800,286.000 378.800 C 286.440 378.800,286.800 378.620,286.800 378.400 C 286.800 378.180,287.160 378.000,287.600 378.000 C 288.040 378.000,288.400 377.820,288.400 377.600 C 288.400 377.380,288.760 377.200,289.200 377.200 C 289.640 377.200,290.000 377.020,290.000 376.800 C 290.000 376.580,290.360 376.400,290.800 376.400 C 291.240 376.400,291.600 376.220,291.600 376.000 C 291.600 375.780,291.960 375.600,292.400 375.600 C 292.840 375.600,293.200 375.420,293.200 375.200 C 293.200 374.980,293.560 374.800,294.000 374.800 C 294.440 374.800,294.800 374.620,294.800 374.400 C 294.800 374.180,295.120 374.000,295.512 374.000 C 295.903 374.000,296.483 373.640,296.800 373.200 C 297.117 372.760,297.697 372.400,298.088 372.400 C 298.480 372.400,298.800 372.220,298.800 372.000 C 298.800 371.780,299.160 371.600,299.600 371.600 C 300.040 371.600,300.400 371.420,300.400 371.200 C 300.400 370.980,300.720 370.800,301.112 370.800 C 301.503 370.800,302.083 370.440,302.400 370.000 C 302.717 369.560,303.257 369.200,303.600 369.200 C 303.943 369.200,304.483 368.840,304.800 368.400 C 305.117 367.960,305.697 367.600,306.088 367.600 C 306.480 367.600,306.800 367.420,306.800 367.200 C 306.800 366.980,307.120 366.800,307.512 366.800 C 307.903 366.800,308.483 366.440,308.800 366.000 C 309.117 365.560,309.657 365.200,310.000 365.200 C 310.343 365.200,310.883 364.840,311.200 364.400 C 311.517 363.960,312.025 363.600,312.328 363.600 C 312.631 363.600,313.383 363.060,314.000 362.400 C 314.617 361.740,315.369 361.200,315.672 361.200 C 315.975 361.200,316.483 360.840,316.800 360.400 C 317.117 359.960,317.621 359.600,317.920 359.600 C 318.218 359.600,319.154 358.880,320.000 358.000 C 320.846 357.120,321.749 356.400,322.008 356.400 C 322.267 356.400,322.983 355.860,323.600 355.200 C 324.217 354.540,324.929 354.000,325.183 354.000 C 325.437 354.000,326.704 352.920,328.000 351.600 C 329.296 350.280,330.547 349.200,330.780 349.200 C 331.335 349.200,349.200 331.335,349.200 330.780 C 349.200 330.547,350.280 329.296,351.600 328.000 C 352.920 326.704,354.000 325.437,354.000 325.183 C 354.000 324.929,354.540 324.217,355.200 323.600 C 355.860 322.983,356.400 322.267,356.400 322.008 C 356.400 321.749,357.120 320.846,358.000 320.000 C 358.880 319.154,359.600 318.218,359.600 317.920 C 359.600 317.621,359.960 317.117,360.400 316.800 C 360.840 316.483,361.200 315.975,361.200 315.672 C 361.200 315.369,361.740 314.617,362.400 314.000 C 363.060 313.383,363.600 312.631,363.600 312.328 C 363.600 312.025,363.960 311.517,364.400 311.200 C 364.840 310.883,365.200 310.343,365.200 310.000 C 365.200 309.657,365.560 309.117,366.000 308.800 C 366.440 308.483,366.800 307.903,366.800 307.512 C 366.800 307.120,366.980 306.800,367.200 306.800 C 367.420 306.800,367.600 306.480,367.600 306.088 C 367.600 305.697,367.960 305.117,368.400 304.800 C 368.840 304.483,369.200 303.943,369.200 303.600 C 369.200 303.257,369.560 302.717,370.000 302.400 C 370.440 302.083,370.800 301.503,370.800 301.112 C 370.800 300.720,370.980 300.400,371.200 300.400 C 371.420 300.400,371.600 300.040,371.600 299.600 C 371.600 299.160,371.780 298.800,372.000 298.800 C 372.220 298.800,372.400 298.480,372.400 298.088 C 372.400 297.697,372.760 297.117,373.200 296.800 C 373.640 296.483,374.000 295.847,374.000 295.387 C 374.000 294.927,374.360 294.164,374.800 293.692 C 375.240 293.220,375.600 292.556,375.600 292.217 C 375.600 291.878,375.780 291.600,376.000 291.600 C 376.220 291.600,376.400 291.240,376.400 290.800 C 376.400 290.360,376.580 290.000,376.800 290.000 C 377.020 290.000,377.200 289.640,377.200 289.200 C 377.200 288.760,377.380 288.400,377.600 288.400 C 377.820 288.400,378.000 288.040,378.000 287.600 C 378.000 287.160,378.180 286.800,378.400 286.800 C 378.620 286.800,378.800 286.440,378.800 286.000 C 378.800 285.560,378.980 285.200,379.200 285.200 C 379.420 285.200,379.600 284.784,379.600 284.275 C 379.600 283.767,379.960 282.964,380.400 282.492 C 380.840 282.020,381.200 281.176,381.200 280.617 C 381.200 280.058,381.380 279.600,381.600 279.600 C 381.820 279.600,382.000 279.240,382.000 278.800 C 382.000 278.360,382.180 278.000,382.400 278.000 C 382.620 278.000,382.800 277.640,382.800 277.200 C 382.800 276.760,382.980 276.400,383.200 276.400 C 383.420 276.400,383.600 275.860,383.600 275.200 C 383.600 274.540,383.780 274.000,384.000 274.000 C 384.220 274.000,384.400 273.640,384.400 273.200 C 384.400 272.760,384.580 272.400,384.800 272.400 C 385.020 272.400,385.200 271.860,385.200 271.200 C 385.200 270.540,385.380 270.000,385.600 270.000 C 385.820 270.000,386.000 269.460,386.000 268.800 C 386.000 268.140,386.180 267.600,386.400 267.600 C 386.620 267.600,386.800 267.060,386.800 266.400 C 386.800 265.740,386.980 265.200,387.200 265.200 C 387.420 265.200,387.600 264.660,387.600 264.000 C 387.600 263.340,387.780 262.800,388.000 262.800 C 388.220 262.800,388.400 262.260,388.400 261.600 C 388.400 260.940,388.580 260.400,388.800 260.400 C 389.020 260.400,389.200 259.860,389.200 259.200 C 389.200 258.540,389.380 258.000,389.600 258.000 C 389.820 258.000,390.000 257.460,390.000 256.800 C 390.000 256.140,390.180 255.600,390.400 255.600 C 390.620 255.600,390.800 254.880,390.800 254.000 C 390.800 253.120,390.980 252.400,391.200 252.400 C 391.420 252.400,391.600 251.680,391.600 250.800 C 391.600 249.920,391.780 249.200,392.000 249.200 C 392.220 249.200,392.400 248.480,392.400 247.600 C 392.400 246.720,392.580 246.000,392.800 246.000 C 393.020 246.000,393.200 245.280,393.200 244.400 C 393.200 243.520,393.380 242.800,393.600 242.800 C 393.820 242.800,394.000 241.900,394.000 240.800 C 394.000 239.700,394.180 238.800,394.400 238.800 C 394.620 238.800,394.800 237.821,394.800 236.624 C 394.800 235.427,394.980 234.336,395.200 234.200 C 395.420 234.064,395.600 232.783,395.600 231.353 C 395.600 229.721,395.749 228.845,396.000 229.000 C 396.255 229.157,396.400 228.004,396.400 225.824 C 396.400 223.735,396.561 222.400,396.813 222.400 C 397.079 222.400,397.186 220.864,397.113 218.100 L 397.000 213.800 342.100 159.002 L 287.200 104.204 287.200 112.082 M133.200 115.158 C 133.200 129.921,139.577 147.537,149.216 159.400 C 153.148 164.239,164.400 174.332,164.400 173.019 C 164.400 172.891,163.143 170.225,161.606 167.093 C 157.681 159.096,155.391 152.483,153.817 144.600 C 152.322 137.112,152.200 135.632,152.200 124.900 L 152.200 114.000 142.700 114.000 L 133.200 114.000 133.200 115.158 M256.973 114.674 C 257.115 115.045,257.339 118.510,257.470 122.374 C 258.038 139.086,254.827 153.670,247.360 168.293 C 245.982 170.992,244.957 173.200,245.083 173.200 C 247.378 173.200,259.803 160.903,264.078 154.400 C 271.425 143.226,276.400 127.791,276.400 116.171 L 276.400 114.000 266.557 114.000 C 257.492 114.000,256.735 114.053,256.973 114.674 M153.600 179.481 C 153.600 179.887,196.096 222.400,196.501 222.400 C 196.666 222.400,196.800 218.541,196.800 213.825 L 196.800 205.250 193.345 202.998 C 189.449 200.459,185.372 197.305,181.743 194.022 C 179.550 192.039,178.776 191.630,174.543 190.220 C 168.955 188.358,161.524 184.665,156.900 181.452 C 155.085 180.191,153.600 179.304,153.600 179.481 " stroke="none" fill="#143444" fill-rule="evenodd"></path><path id="path4" d="M156.000 98.700 C 156.000 98.865,177.805 99.000,204.456 99.000 C 247.133 99.000,252.948 99.072,253.204 99.600 C 253.364 99.930,253.744 101.010,254.048 102.000 L 254.600 103.800 270.452 103.905 L 286.305 104.009 286.592 108.605 C 288.858 144.870,267.091 178.904,234.802 189.583 C 230.075 191.147,229.848 191.276,226.670 194.210 C 223.725 196.929,221.364 198.719,214.400 203.515 L 212.200 205.030 212.200 222.815 L 212.200 240.600 220.000 240.800 L 227.800 241.000 228.000 243.600 L 228.200 246.200 235.269 246.400 C 244.159 246.652,246.107 248.180,245.507 254.430 C 245.404 255.499,245.473 256.278,245.660 256.163 C 246.399 255.706,246.021 251.011,245.100 249.208 C 243.486 246.050,242.882 245.828,235.273 245.600 L 228.600 245.400 228.400 243.000 L 228.200 240.600 220.500 240.491 L 212.800 240.383 212.800 222.811 L 212.800 205.239 215.687 203.371 C 219.265 201.057,223.669 197.674,227.600 194.222 C 230.081 192.044,231.085 191.444,233.400 190.755 C 261.033 182.540,282.515 155.850,286.584 124.680 C 287.349 118.816,287.443 104.403,286.720 103.680 C 286.363 103.323,282.228 103.200,270.586 103.200 L 254.931 103.200 254.264 100.800 L 253.597 98.400 204.798 98.400 C 177.959 98.400,156.000 98.535,156.000 98.700 M155.429 100.629 C 155.281 101.215,155.251 101.784,155.361 101.894 C 155.471 102.004,155.681 101.615,155.829 101.029 C 155.976 100.442,156.006 99.873,155.896 99.763 C 155.786 99.653,155.576 100.042,155.429 100.629 M154.800 102.733 C 154.800 103.081,150.775 103.200,139.014 103.200 C 123.816 103.200,123.213 103.229,122.814 103.974 C 122.347 104.847,122.300 119.406,122.755 122.600 C 122.911 123.700,122.966 120.370,122.877 115.200 C 122.771 109.032,122.864 105.422,123.148 104.700 L 123.580 103.600 139.166 103.600 C 153.933 103.600,155.992 103.458,155.040 102.507 C 154.908 102.375,154.800 102.477,154.800 102.733 M132.800 116.728 C 132.800 121.939,134.360 130.763,136.314 136.600 C 140.208 148.234,145.861 157.427,154.065 165.469 C 157.140 168.484,164.578 174.400,165.293 174.400 C 165.846 174.400,165.615 173.145,164.862 172.062 C 161.788 167.642,157.152 156.203,155.273 148.400 C 153.043 139.148,152.764 136.398,152.836 124.400 L 152.899 113.800 142.850 113.693 L 132.800 113.586 132.800 116.728 M256.741 123.900 C 256.830 130.391,256.713 135.235,256.426 137.000 C 255.331 143.730,255.048 145.199,254.195 148.600 C 253.126 152.863,251.473 157.932,250.383 160.296 C 249.952 161.228,249.600 162.082,249.600 162.194 C 249.600 162.681,246.655 168.709,245.198 171.204 C 242.862 175.203,243.071 175.325,247.318 172.446 C 264.289 160.941,276.800 137.494,276.800 117.193 L 276.800 113.600 266.700 113.600 L 256.600 113.600 256.741 123.900 M152.200 124.900 C 152.200 135.632,152.322 137.112,153.817 144.600 C 155.391 152.483,157.681 159.096,161.606 167.093 C 163.143 170.225,164.400 172.891,164.400 173.019 C 164.400 174.332,153.148 164.239,149.216 159.400 C 139.577 147.537,133.200 129.921,133.200 115.158 L 133.200 114.000 142.700 114.000 L 152.200 114.000 152.200 124.900 M276.400 116.171 C 276.400 127.791,271.425 143.226,264.078 154.400 C 259.803 160.903,247.378 173.200,245.083 173.200 C 244.957 173.200,245.982 170.992,247.360 168.293 C 254.827 153.670,258.038 139.086,257.470 122.374 C 257.339 118.510,257.115 115.045,256.973 114.674 C 256.735 114.053,257.492 114.000,266.557 114.000 L 276.400 114.000 276.400 116.171 M123.287 126.200 C 123.291 126.860,123.432 127.940,123.600 128.600 L 123.905 129.800 123.913 128.400 C 123.917 127.630,123.776 126.550,123.600 126.000 C 123.289 125.030,123.280 125.035,123.287 126.200 M124.068 130.600 C 124.074 131.040,124.224 131.850,124.400 132.400 L 124.720 133.400 124.732 132.400 C 124.738 131.850,124.589 131.040,124.400 130.600 L 124.056 129.800 124.068 130.600 M124.834 134.200 C 124.872 135.566,125.538 136.842,125.566 135.600 C 125.578 135.050,125.413 134.330,125.200 134.000 C 124.880 133.505,124.816 133.540,124.834 134.200 M125.612 137.200 C 125.612 137.530,125.787 138.070,126.000 138.400 C 126.345 138.933,126.388 138.933,126.388 138.400 C 126.388 138.070,126.213 137.530,126.000 137.200 C 125.655 136.667,125.612 136.667,125.612 137.200 M126.412 139.600 C 126.412 139.930,126.587 140.470,126.800 140.800 C 127.145 141.333,127.188 141.333,127.188 140.800 C 127.188 140.470,127.013 139.930,126.800 139.600 C 126.455 139.067,126.412 139.067,126.412 139.600 M127.212 142.000 C 127.212 142.330,127.387 142.870,127.600 143.200 C 127.945 143.733,127.988 143.733,127.988 143.200 C 127.988 142.870,127.813 142.330,127.600 142.000 C 127.255 141.467,127.212 141.467,127.212 142.000 M128.228 144.800 C 128.755 146.930,133.643 156.388,136.138 160.107 C 145.905 174.661,159.229 185.107,174.543 190.217 C 178.774 191.629,179.551 192.040,181.743 194.022 C 185.372 197.305,189.449 200.459,193.345 202.998 L 196.800 205.250 196.800 222.825 L 196.800 240.400 189.500 240.406 C 181.065 240.413,181.287 240.339,181.124 243.209 L 181.000 245.400 174.380 245.600 C 166.672 245.833,164.008 247.065,164.002 250.400 C 164.001 250.730,164.373 250.247,164.828 249.328 C 166.258 246.439,166.881 246.227,174.600 246.000 L 181.400 245.800 181.600 243.400 L 181.800 241.000 189.446 240.892 L 197.091 240.783 197.385 224.028 C 197.745 203.541,198.103 205.434,193.268 202.241 C 189.000 199.422,185.646 196.818,181.962 193.461 C 180.091 191.756,178.921 191.055,176.867 190.407 C 171.051 188.573,162.537 184.703,159.000 182.285 C 146.347 173.637,137.633 163.734,131.469 151.000 C 130.511 149.020,129.334 146.590,128.854 145.600 C 128.373 144.610,128.092 144.250,128.228 144.800 M163.724 253.400 C 163.726 254.720,163.801 255.212,163.890 254.493 C 163.979 253.774,163.977 252.694,163.886 252.093 C 163.795 251.492,163.722 252.080,163.724 253.400 " stroke="none" fill="#605e32" fill-rule="evenodd"></path></g></svg>