<svg xmlns="http://www.w3.org/2000/svg" width="1280" height="748" style="cursor: move;"><g transform="translate(-290.3677768169387,13.3963291708253) scale(0.9)"><path class="link" marker-end="" d="M480,94.5, 660,197.5" style="stroke-width: 0.5px; stroke-opacity: 1; stroke: rgb(80, 80, 80);"></path><path class="link" marker-end="" d="M480,94.5, 660,234.5" style="stroke-width: 0.5px; stroke-opacity: 1; stroke: rgb(80, 80, 80);"></path><path class="link" marker-end="" d="M480,94.5, 660,271.5" style="stroke-width: 0.5px; stroke-opacity: 1; stroke: rgb(80, 80, 80);"></path><path class="link" marker-end="" d="M480,94.5, 660,308.5" style="stroke-width: 0.5px; stroke-opacity: 1; stroke: rgb(80, 80, 80);"></path><path class="link" marker-end="" d="M480,94.5, 660,345.5" style="stroke-width: 0.5px; stroke-opacity: 1; stroke: rgb(80, 80, 80);"></path><path class="link" marker-end="" d="M480,94.5, 660,382.5" style="stroke-width: 0.5px; stroke-opacity: 1; stroke: rgb(80, 80, 80);"></path><path class="link" marker-end="" d="M480,94.5, 660,419.5" style="stroke-width: 0.5px; stroke-opacity: 1; stroke: rgb(80, 80, 80);"></path><path class="link" marker-end="" d="M480,94.5, 660,456.5" style="stroke-width: 0.5px; stroke-opacity: 1; stroke: rgb(80, 80, 80);"></path><path class="link" marker-end="" d="M480,94.5, 660,493.5" style="stroke-width: 0.5px; stroke-opacity: 1; stroke: rgb(80, 80, 80);"></path><path class="link" marker-end="" d="M480,94.5, 660,530.5" style="stroke-width: 0.5px; stroke-opacity: 1; stroke: rgb(80, 80, 80);"></path><path class="link" marker-end="" d="M480,143.5, 660,197.5" style="stroke-width: 0.5px; stroke-opacity: 1; stroke: rgb(80, 80, 80);"></path><path class="link" marker-end="" d="M480,143.5, 660,234.5" style="stroke-width: 0.5px; stroke-opacity: 1; stroke: rgb(80, 80, 80);"></path><path class="link" marker-end="" d="M480,143.5, 660,271.5" style="stroke-width: 0.5px; stroke-opacity: 1; stroke: rgb(80, 80, 80);"></path><path class="link" marker-end="" d="M480,143.5, 660,308.5" style="stroke-width: 0.5px; stroke-opacity: 1; stroke: rgb(80, 80, 80);"></path><path class="link" marker-end="" d="M480,143.5, 660,345.5" style="stroke-width: 0.5px; stroke-opacity: 1; stroke: rgb(80, 80, 80);"></path><path class="link" marker-end="" d="M480,143.5, 660,382.5" style="stroke-width: 0.5px; stroke-opacity: 1; stroke: rgb(80, 80, 80);"></path><path class="link" marker-end="" d="M480,143.5, 660,419.5" style="stroke-width: 0.5px; stroke-opacity: 1; stroke: rgb(80, 80, 80);"></path><path class="link" marker-end="" d="M480,143.5, 660,456.5" style="stroke-width: 0.5px; stroke-opacity: 1; stroke: rgb(80, 80, 80);"></path><path class="link" marker-end="" d="M480,143.5, 660,493.5" style="stroke-width: 0.5px; stroke-opacity: 1; stroke: rgb(80, 80, 80);"></path><path class="link" marker-end="" d="M480,143.5, 660,530.5" style="stroke-width: 0.5px; stroke-opacity: 1; stroke: rgb(80, 80, 80);"></path><path class="link" marker-end="" d="M480,192.5, 660,197.5" style="stroke-width: 0.5px; stroke-opacity: 1; stroke: rgb(80, 80, 80);"></path><path class="link" marker-end="" d="M480,192.5, 660,234.5" style="stroke-width: 0.5px; stroke-opacity: 1; stroke: rgb(80, 80, 80);"></path><path class="link" marker-end="" d="M480,192.5, 660,271.5" style="stroke-width: 0.5px; stroke-opacity: 1; stroke: rgb(80, 80, 80);"></path><path class="link" marker-end="" d="M480,192.5, 660,308.5" style="stroke-width: 0.5px; stroke-opacity: 1; stroke: rgb(80, 80, 80);"></path><path class="link" marker-end="" d="M480,192.5, 660,345.5" style="stroke-width: 0.5px; stroke-opacity: 1; stroke: rgb(80, 80, 80);"></path><path class="link" marker-end="" d="M480,192.5, 660,382.5" style="stroke-width: 0.5px; stroke-opacity: 1; stroke: rgb(80, 80, 80);"></path><path class="link" marker-end="" d="M480,192.5, 660,419.5" style="stroke-width: 0.5px; stroke-opacity: 1; stroke: rgb(80, 80, 80);"></path><path class="link" marker-end="" d="M480,192.5, 660,456.5" style="stroke-width: 0.5px; stroke-opacity: 1; stroke: rgb(80, 80, 80);"></path><path class="link" marker-end="" d="M480,192.5, 660,493.5" style="stroke-width: 0.5px; stroke-opacity: 1; stroke: rgb(80, 80, 80);"></path><path class="link" marker-end="" d="M480,192.5, 660,530.5" style="stroke-width: 0.5px; stroke-opacity: 1; stroke: rgb(80, 80, 80);"></path><path class="link" marker-end="" d="M480,241.5, 660,197.5" style="stroke-width: 0.5px; stroke-opacity: 1; stroke: rgb(80, 80, 80);"></path><path class="link" marker-end="" d="M480,241.5, 660,234.5" style="stroke-width: 0.5px; stroke-opacity: 1; stroke: rgb(80, 80, 80);"></path><path class="link" marker-end="" d="M480,241.5, 660,271.5" style="stroke-width: 0.5px; stroke-opacity: 1; stroke: rgb(80, 80, 80);"></path><path class="link" marker-end="" d="M480,241.5, 660,308.5" style="stroke-width: 0.5px; stroke-opacity: 1; stroke: rgb(80, 80, 80);"></path><path class="link" marker-end="" d="M480,241.5, 660,345.5" style="stroke-width: 0.5px; stroke-opacity: 1; stroke: rgb(80, 80, 80);"></path><path class="link" marker-end="" d="M480,241.5, 660,382.5" style="stroke-width: 0.5px; stroke-opacity: 1; stroke: rgb(80, 80, 80);"></path><path class="link" marker-end="" d="M480,241.5, 660,419.5" style="stroke-width: 0.5px; stroke-opacity: 1; stroke: rgb(80, 80, 80);"></path><path class="link" marker-end="" d="M480,241.5, 660,456.5" style="stroke-width: 0.5px; stroke-opacity: 1; stroke: rgb(80, 80, 80);"></path><path class="link" marker-end="" d="M480,241.5, 660,493.5" style="stroke-width: 0.5px; stroke-opacity: 1; stroke: rgb(80, 80, 80);"></path><path class="link" marker-end="" d="M480,241.5, 660,530.5" style="stroke-width: 0.5px; stroke-opacity: 1; stroke: rgb(80, 80, 80);"></path><path class="link" marker-end="" d="M480,290.5, 660,197.5" style="stroke-width: 0.5px; stroke-opacity: 1; stroke: rgb(80, 80, 80);"></path><path class="link" marker-end="" d="M480,290.5, 660,234.5" style="stroke-width: 0.5px; stroke-opacity: 1; stroke: rgb(80, 80, 80);"></path><path class="link" marker-end="" d="M480,290.5, 660,271.5" style="stroke-width: 0.5px; stroke-opacity: 1; stroke: rgb(80, 80, 80);"></path><path class="link" marker-end="" d="M480,290.5, 660,308.5" style="stroke-width: 0.5px; stroke-opacity: 1; stroke: rgb(80, 80, 80);"></path><path class="link" marker-end="" d="M480,290.5, 660,345.5" style="stroke-width: 0.5px; stroke-opacity: 1; stroke: rgb(80, 80, 80);"></path><path class="link" marker-end="" d="M480,290.5, 660,382.5" style="stroke-width: 0.5px; stroke-opacity: 1; stroke: rgb(80, 80, 80);"></path><path class="link" marker-end="" d="M480,290.5, 660,419.5" style="stroke-width: 0.5px; stroke-opacity: 1; stroke: rgb(80, 80, 80);"></path><path class="link" marker-end="" d="M480,290.5, 660,456.5" style="stroke-width: 0.5px; stroke-opacity: 1; stroke: rgb(80, 80, 80);"></path><path class="link" marker-end="" d="M480,290.5, 660,493.5" style="stroke-width: 0.5px; stroke-opacity: 1; stroke: rgb(80, 80, 80);"></path><path class="link" marker-end="" d="M480,290.5, 660,530.5" style="stroke-width: 0.5px; stroke-opacity: 1; stroke: rgb(80, 80, 80);"></path><path class="link" marker-end="" d="M480,339.5, 660,197.5" style="stroke-width: 0.5px; stroke-opacity: 1; stroke: rgb(80, 80, 80);"></path><path class="link" marker-end="" d="M480,339.5, 660,234.5" style="stroke-width: 0.5px; stroke-opacity: 1; stroke: rgb(80, 80, 80);"></path><path class="link" marker-end="" d="M480,339.5, 660,271.5" style="stroke-width: 0.5px; stroke-opacity: 1; stroke: rgb(80, 80, 80);"></path><path class="link" marker-end="" d="M480,339.5, 660,308.5" style="stroke-width: 0.5px; stroke-opacity: 1; stroke: rgb(80, 80, 80);"></path><path class="link" marker-end="" d="M480,339.5, 660,345.5" style="stroke-width: 0.5px; stroke-opacity: 1; stroke: rgb(80, 80, 80);"></path><path class="link" marker-end="" d="M480,339.5, 660,382.5" style="stroke-width: 0.5px; stroke-opacity: 1; stroke: rgb(80, 80, 80);"></path><path class="link" marker-end="" d="M480,339.5, 660,419.5" style="stroke-width: 0.5px; stroke-opacity: 1; stroke: rgb(80, 80, 80);"></path><path class="link" marker-end="" d="M480,339.5, 660,456.5" style="stroke-width: 0.5px; stroke-opacity: 1; stroke: rgb(80, 80, 80);"></path><path class="link" marker-end="" d="M480,339.5, 660,493.5" style="stroke-width: 0.5px; stroke-opacity: 1; stroke: rgb(80, 80, 80);"></path><path class="link" marker-end="" d="M480,339.5, 660,530.5" style="stroke-width: 0.5px; stroke-opacity: 1; stroke: rgb(80, 80, 80);"></path><path class="link" marker-end="" d="M480,388.5, 660,197.5" style="stroke-width: 0.5px; stroke-opacity: 1; stroke: rgb(80, 80, 80);"></path><path class="link" marker-end="" d="M480,388.5, 660,234.5" style="stroke-width: 0.5px; stroke-opacity: 1; stroke: rgb(80, 80, 80);"></path><path class="link" marker-end="" d="M480,388.5, 660,271.5" style="stroke-width: 0.5px; stroke-opacity: 1; stroke: rgb(80, 80, 80);"></path><path class="link" marker-end="" d="M480,388.5, 660,308.5" style="stroke-width: 0.5px; stroke-opacity: 1; stroke: rgb(80, 80, 80);"></path><path class="link" marker-end="" d="M480,388.5, 660,345.5" style="stroke-width: 0.5px; stroke-opacity: 1; stroke: rgb(80, 80, 80);"></path><path class="link" marker-end="" d="M480,388.5, 660,382.5" style="stroke-width: 0.5px; stroke-opacity: 1; stroke: rgb(80, 80, 80);"></path><path class="link" marker-end="" d="M480,388.5, 660,419.5" style="stroke-width: 0.5px; stroke-opacity: 1; stroke: rgb(80, 80, 80);"></path><path class="link" marker-end="" d="M480,388.5, 660,456.5" style="stroke-width: 0.5px; stroke-opacity: 1; stroke: rgb(80, 80, 80);"></path><path class="link" marker-end="" d="M480,388.5, 660,493.5" style="stroke-width: 0.5px; stroke-opacity: 1; stroke: rgb(80, 80, 80);"></path><path class="link" marker-end="" d="M480,388.5, 660,530.5" style="stroke-width: 0.5px; stroke-opacity: 1; stroke: rgb(80, 80, 80);"></path><path class="link" marker-end="" d="M480,437.5, 660,197.5" style="stroke-width: 0.5px; stroke-opacity: 1; stroke: rgb(80, 80, 80);"></path><path class="link" marker-end="" d="M480,437.5, 660,234.5" style="stroke-width: 0.5px; stroke-opacity: 1; stroke: rgb(80, 80, 80);"></path><path class="link" marker-end="" d="M480,437.5, 660,271.5" style="stroke-width: 0.5px; stroke-opacity: 1; stroke: rgb(80, 80, 80);"></path><path class="link" marker-end="" d="M480,437.5, 660,308.5" style="stroke-width: 0.5px; stroke-opacity: 1; stroke: rgb(80, 80, 80);"></path><path class="link" marker-end="" d="M480,437.5, 660,345.5" style="stroke-width: 0.5px; stroke-opacity: 1; stroke: rgb(80, 80, 80);"></path><path class="link" marker-end="" d="M480,437.5, 660,382.5" style="stroke-width: 0.5px; stroke-opacity: 1; stroke: rgb(80, 80, 80);"></path><path class="link" marker-end="" d="M480,437.5, 660,419.5" style="stroke-width: 0.5px; stroke-opacity: 1; stroke: rgb(80, 80, 80);"></path><path class="link" marker-end="" d="M480,437.5, 660,456.5" style="stroke-width: 0.5px; stroke-opacity: 1; stroke: rgb(80, 80, 80);"></path><path class="link" marker-end="" d="M480,437.5, 660,493.5" style="stroke-width: 0.5px; stroke-opacity: 1; stroke: rgb(80, 80, 80);"></path><path class="link" marker-end="" d="M480,437.5, 660,530.5" style="stroke-width: 0.5px; stroke-opacity: 1; stroke: rgb(80, 80, 80);"></path><path class="link" marker-end="" d="M480,486.5, 660,197.5" style="stroke-width: 0.5px; stroke-opacity: 1; stroke: rgb(80, 80, 80);"></path><path class="link" marker-end="" d="M480,486.5, 660,234.5" style="stroke-width: 0.5px; stroke-opacity: 1; stroke: rgb(80, 80, 80);"></path><path class="link" marker-end="" d="M480,486.5, 660,271.5" style="stroke-width: 0.5px; stroke-opacity: 1; stroke: rgb(80, 80, 80);"></path><path class="link" marker-end="" d="M480,486.5, 660,308.5" style="stroke-width: 0.5px; stroke-opacity: 1; stroke: rgb(80, 80, 80);"></path><path class="link" marker-end="" d="M480,486.5, 660,345.5" style="stroke-width: 0.5px; stroke-opacity: 1; stroke: rgb(80, 80, 80);"></path><path class="link" marker-end="" d="M480,486.5, 660,382.5" style="stroke-width: 0.5px; stroke-opacity: 1; stroke: rgb(80, 80, 80);"></path><path class="link" marker-end="" d="M480,486.5, 660,419.5" style="stroke-width: 0.5px; stroke-opacity: 1; stroke: rgb(80, 80, 80);"></path><path class="link" marker-end="" d="M480,486.5, 660,456.5" style="stroke-width: 0.5px; stroke-opacity: 1; stroke: rgb(80, 80, 80);"></path><path class="link" marker-end="" d="M480,486.5, 660,493.5" style="stroke-width: 0.5px; stroke-opacity: 1; stroke: rgb(80, 80, 80);"></path><path class="link" marker-end="" d="M480,486.5, 660,530.5" style="stroke-width: 0.5px; stroke-opacity: 1; stroke: rgb(80, 80, 80);"></path><path class="link" marker-end="" d="M480,535.5, 660,197.5" style="stroke-width: 0.5px; stroke-opacity: 1; stroke: rgb(80, 80, 80);"></path><path class="link" marker-end="" d="M480,535.5, 660,234.5" style="stroke-width: 0.5px; stroke-opacity: 1; stroke: rgb(80, 80, 80);"></path><path class="link" marker-end="" d="M480,535.5, 660,271.5" style="stroke-width: 0.5px; stroke-opacity: 1; stroke: rgb(80, 80, 80);"></path><path class="link" marker-end="" d="M480,535.5, 660,308.5" style="stroke-width: 0.5px; stroke-opacity: 1; stroke: rgb(80, 80, 80);"></path><path class="link" marker-end="" d="M480,535.5, 660,345.5" style="stroke-width: 0.5px; stroke-opacity: 1; stroke: rgb(80, 80, 80);"></path><path class="link" marker-end="" d="M480,535.5, 660,382.5" style="stroke-width: 0.5px; stroke-opacity: 1; stroke: rgb(80, 80, 80);"></path><path class="link" marker-end="" d="M480,535.5, 660,419.5" style="stroke-width: 0.5px; stroke-opacity: 1; stroke: rgb(80, 80, 80);"></path><path class="link" marker-end="" d="M480,535.5, 660,456.5" style="stroke-width: 0.5px; stroke-opacity: 1; stroke: rgb(80, 80, 80);"></path><path class="link" marker-end="" d="M480,535.5, 660,493.5" style="stroke-width: 0.5px; stroke-opacity: 1; stroke: rgb(80, 80, 80);"></path><path class="link" marker-end="" d="M480,535.5, 660,530.5" style="stroke-width: 0.5px; stroke-opacity: 1; stroke: rgb(80, 80, 80);"></path><path class="link" marker-end="" d="M480,584.5, 660,197.5" style="stroke-width: 0.5px; stroke-opacity: 1; stroke: rgb(80, 80, 80);"></path><path class="link" marker-end="" d="M480,584.5, 660,234.5" style="stroke-width: 0.5px; stroke-opacity: 1; stroke: rgb(80, 80, 80);"></path><path class="link" marker-end="" d="M480,584.5, 660,271.5" style="stroke-width: 0.5px; stroke-opacity: 1; stroke: rgb(80, 80, 80);"></path><path class="link" marker-end="" d="M480,584.5, 660,308.5" style="stroke-width: 0.5px; stroke-opacity: 1; stroke: rgb(80, 80, 80);"></path><path class="link" marker-end="" d="M480,584.5, 660,345.5" style="stroke-width: 0.5px; stroke-opacity: 1; stroke: rgb(80, 80, 80);"></path><path class="link" marker-end="" d="M480,584.5, 660,382.5" style="stroke-width: 0.5px; stroke-opacity: 1; stroke: rgb(80, 80, 80);"></path><path class="link" marker-end="" d="M480,584.5, 660,419.5" style="stroke-width: 0.5px; stroke-opacity: 1; stroke: rgb(80, 80, 80);"></path><path class="link" marker-end="" d="M480,584.5, 660,456.5" style="stroke-width: 0.5px; stroke-opacity: 1; stroke: rgb(80, 80, 80);"></path><path class="link" marker-end="" d="M480,584.5, 660,493.5" style="stroke-width: 0.5px; stroke-opacity: 1; stroke: rgb(80, 80, 80);"></path><path class="link" marker-end="" d="M480,584.5, 660,530.5" style="stroke-width: 0.5px; stroke-opacity: 1; stroke: rgb(80, 80, 80);"></path><path class="link" marker-end="" d="M480,633.5, 660,197.5" style="stroke-width: 0.5px; stroke-opacity: 1; stroke: rgb(80, 80, 80);"></path><path class="link" marker-end="" d="M480,633.5, 660,234.5" style="stroke-width: 0.5px; stroke-opacity: 1; stroke: rgb(80, 80, 80);"></path><path class="link" marker-end="" d="M480,633.5, 660,271.5" style="stroke-width: 0.5px; stroke-opacity: 1; stroke: rgb(80, 80, 80);"></path><path class="link" marker-end="" d="M480,633.5, 660,308.5" style="stroke-width: 0.5px; stroke-opacity: 1; stroke: rgb(80, 80, 80);"></path><path class="link" marker-end="" d="M480,633.5, 660,345.5" style="stroke-width: 0.5px; stroke-opacity: 1; stroke: rgb(80, 80, 80);"></path><path class="link" marker-end="" d="M480,633.5, 660,382.5" style="stroke-width: 0.5px; stroke-opacity: 1; stroke: rgb(80, 80, 80);"></path><path class="link" marker-end="" d="M480,633.5, 660,419.5" style="stroke-width: 0.5px; stroke-opacity: 1; stroke: rgb(80, 80, 80);"></path><path class="link" marker-end="" d="M480,633.5, 660,456.5" style="stroke-width: 0.5px; stroke-opacity: 1; stroke: rgb(80, 80, 80);"></path><path class="link" marker-end="" d="M480,633.5, 660,493.5" style="stroke-width: 0.5px; stroke-opacity: 1; stroke: rgb(80, 80, 80);"></path><path class="link" marker-end="" d="M480,633.5, 660,530.5" style="stroke-width: 0.5px; stroke-opacity: 1; stroke: rgb(80, 80, 80);"></path><path class="link" marker-end="" d="M660,197.5, 840,364" style="stroke-width: 0.5px; stroke-opacity: 1; stroke: rgb(80, 80, 80);"></path><path class="link" marker-end="" d="M660,234.5, 840,364" style="stroke-width: 0.5px; stroke-opacity: 1; stroke: rgb(80, 80, 80);"></path><path class="link" marker-end="" d="M660,271.5, 840,364" style="stroke-width: 0.5px; stroke-opacity: 1; stroke: rgb(80, 80, 80);"></path><path class="link" marker-end="" d="M660,308.5, 840,364" style="stroke-width: 0.5px; stroke-opacity: 1; stroke: rgb(80, 80, 80);"></path><path class="link" marker-end="" d="M660,345.5, 840,364" style="stroke-width: 0.5px; stroke-opacity: 1; stroke: rgb(80, 80, 80);"></path><path class="link" marker-end="" d="M660,382.5, 840,364" style="stroke-width: 0.5px; stroke-opacity: 1; stroke: rgb(80, 80, 80);"></path><path class="link" marker-end="" d="M660,419.5, 840,364" style="stroke-width: 0.5px; stroke-opacity: 1; stroke: rgb(80, 80, 80);"></path><path class="link" marker-end="" d="M660,456.5, 840,364" style="stroke-width: 0.5px; stroke-opacity: 1; stroke: rgb(80, 80, 80);"></path><path class="link" marker-end="" d="M660,493.5, 840,364" style="stroke-width: 0.5px; stroke-opacity: 1; stroke: rgb(80, 80, 80);"></path><path class="link" marker-end="" d="M660,530.5, 840,364" style="stroke-width: 0.5px; stroke-opacity: 1; stroke: rgb(80, 80, 80);"></path><circle r="10" class="node" id="0_0" cx="480" cy="94.5" style="fill: rgb(255, 255, 255); stroke: rgb(51, 51, 51);"></circle><circle r="10" class="node" id="0_1" cx="480" cy="143.5" style="fill: rgb(255, 255, 255); stroke: rgb(51, 51, 51);"></circle><circle r="10" class="node" id="0_2" cx="480" cy="192.5" style="fill: rgb(255, 255, 255); stroke: rgb(51, 51, 51);"></circle><circle r="10" class="node" id="0_3" cx="480" cy="241.5" style="fill: rgb(255, 255, 255); stroke: rgb(51, 51, 51);"></circle><circle r="10" class="node" id="0_4" cx="480" cy="290.5" style="fill: rgb(255, 255, 255); stroke: rgb(51, 51, 51);"></circle><circle r="10" class="node" id="0_5" cx="480" cy="339.5" style="fill: rgb(255, 255, 255); stroke: rgb(51, 51, 51);"></circle><circle r="10" class="node" id="0_6" cx="480" cy="388.5" style="fill: rgb(255, 255, 255); stroke: rgb(51, 51, 51);"></circle><circle r="10" class="node" id="0_7" cx="480" cy="437.5" style="fill: rgb(255, 255, 255); stroke: rgb(51, 51, 51);"></circle><circle r="10" class="node" id="0_8" cx="480" cy="486.5" style="fill: rgb(255, 255, 255); stroke: rgb(51, 51, 51);"></circle><circle r="10" class="node" id="0_9" cx="480" cy="535.5" style="fill: rgb(255, 255, 255); stroke: rgb(51, 51, 51);"></circle><circle r="10" class="node" id="0_10" cx="480" cy="584.5" style="fill: rgb(255, 255, 255); stroke: rgb(51, 51, 51);"></circle><circle r="10" class="node" id="0_11" cx="480" cy="633.5" style="fill: rgb(255, 255, 255); stroke: rgb(51, 51, 51);"></circle><circle r="10" class="node" id="1_0" cx="660" cy="197.5" style="fill: rgb(255, 255, 255); stroke: rgb(51, 51, 51);"></circle><circle r="10" class="node" id="1_1" cx="660" cy="234.5" style="fill: rgb(255, 255, 255); stroke: rgb(51, 51, 51);"></circle><circle r="10" class="node" id="1_2" cx="660" cy="271.5" style="fill: rgb(255, 255, 255); stroke: rgb(51, 51, 51);"></circle><circle r="10" class="node" id="1_3" cx="660" cy="308.5" style="fill: rgb(255, 255, 255); stroke: rgb(51, 51, 51);"></circle><circle r="10" class="node" id="1_4" cx="660" cy="345.5" style="fill: rgb(255, 255, 255); stroke: rgb(51, 51, 51);"></circle><circle r="10" class="node" id="1_5" cx="660" cy="382.5" style="fill: rgb(255, 255, 255); stroke: rgb(51, 51, 51);"></circle><circle r="10" class="node" id="1_6" cx="660" cy="419.5" style="fill: rgb(255, 255, 255); stroke: rgb(51, 51, 51);"></circle><circle r="10" class="node" id="1_7" cx="660" cy="456.5" style="fill: rgb(255, 255, 255); stroke: rgb(51, 51, 51);"></circle><circle r="10" class="node" id="1_8" cx="660" cy="493.5" style="fill: rgb(255, 255, 255); stroke: rgb(51, 51, 51);"></circle><circle r="10" class="node" id="1_9" cx="660" cy="530.5" style="fill: rgb(255, 255, 255); stroke: rgb(51, 51, 51);"></circle><circle r="10" class="node" id="2_0" cx="840" cy="364" style="fill: rgb(255, 255, 255); stroke: rgb(51, 51, 51);"></circle><text class="text" dy=".35em" x="445" y="673.5" style="font-size: 12px;">Input Layer ∈ ℝ¹²</text><text class="text" dy=".35em" x="625" y="673.5" style="font-size: 12px;">Hidden Layer ∈ ℝ¹⁰</text><text class="text" dy=".35em" x="805" y="673.5" style="font-size: 12px;">Output Layer ∈ ℝ¹</text></g><defs><marker id="arrow" viewBox="0 -5 10 10" markerWidth="7" markerHeight="7" orient="auto" refX="40"><path d="M0,-5L10,0L0,5" style="stroke: rgb(80, 80, 80); fill: none;"></path></marker></defs></svg>