<?xml version="1.0" standalone="no"?>
<!DOCTYPE svg PUBLIC "-//W3C//DTD SVG 20010904//EN"
 "http://www.w3.org/TR/2001/REC-SVG-20010904/DTD/svg10.dtd">
<svg version="1.0" xmlns="http://www.w3.org/2000/svg"
 width="200.000000pt" height="83.000000pt" viewBox="0 0 200.000000 83.000000"
 preserveAspectRatio="xMidYMid meet">

<g transform="translate(0.000000,83.000000) scale(0.100000,-0.100000)"
fill="#000000" stroke="none">
<path d="M55 410 c0 -206 1 -291 2 -188 2 104 2 272 0 375 -1 104 -2 19 -2
-187z"/>
<path d="M110 410 c0 -240 4 -370 10 -370 6 0 10 130 10 370 0 240 -4 370 -10
370 -6 0 -10 -130 -10 -370z"/>
<path d="M185 410 c0 -206 1 -291 2 -188 2 104 2 272 0 375 -1 104 -2 19 -2
-187z"/>
<path d="M254 410 c0 -206 2 -306 3 -222 l4 153 157 -3 157 -3 5 -150 c3 -85
6 11 6 225 0 206 -2 309 -3 228 l-4 -148 -159 0 -159 0 -4 148 c-1 81 -3 -22
-3 -228z m324 33 l3 -23 -160 0 -161 0 0 25 0 26 158 -3 c154 -3 157 -3 160
-25z m0 -65 c-3 -23 -5 -23 -158 -23 -153 0 -155 0 -158 23 l-3 22 161 0 161
0 -3 -22z"/>
<path d="M640 410 c0 -240 4 -370 10 -370 6 0 10 130 10 370 0 240 -4 370 -10
370 -6 0 -10 -130 -10 -370z"/>
<path d="M715 410 c0 -206 1 -291 2 -188 2 104 2 272 0 375 -1 104 -2 19 -2
-187z"/>
<path d="M770 410 c0 -240 4 -370 10 -370 6 0 10 130 10 370 0 240 -4 370 -10
370 -6 0 -10 -130 -10 -370z"/>
<path d="M1150 425 l0 -115 39 0 c40 0 40 0 43 43 3 39 5 42 36 45 32 3 32 3
32 -42 l0 -46 40 0 40 0 0 115 0 115 -40 0 -40 0 0 -46 c0 -45 0 -45 -32 -42
-31 3 -33 6 -36 46 -3 42 -3 42 -43 42 l-39 0 0 -115z"/>
<path d="M1847 533 c-4 -3 -7 -48 -7 -99 0 -108 9 -124 71 -124 36 0 39 2 39
29 0 20 -6 30 -20 34 -18 5 -20 14 -20 86 l0 81 -28 0 c-16 0 -32 -3 -35 -7z"/>
<path d="M1442 460 c-64 -60 -24 -150 67 -150 56 0 72 9 65 36 -4 16 -12 19
-38 16 -19 -2 -37 1 -40 7 -5 7 3 11 21 11 15 0 38 3 50 6 18 5 20 10 12 37
-5 18 -17 38 -26 45 -26 19 -86 15 -111 -8z m67 -41 c-16 -10 -23 -4 -14 10 3
6 11 8 17 5 6 -4 5 -9 -3 -15z"/>
<path d="M1629 459 c-26 -26 -33 -64 -19 -100 17 -41 33 -47 123 -47 l77 -1 0
84 0 83 -81 0 c-66 0 -84 -3 -100 -19z m111 -64 c0 -17 -30 -34 -47 -28 -16 6
-17 35 -1 51 14 14 48 -2 48 -23z"/>
</g>
</svg>
