<svg id="Layer_1" data-name="Layer 1" xmlns="http://www.w3.org/2000/svg" viewBox="0 0 74 74"><defs><style>.cls-1{fill:#7a62f2;}.cls-2{fill:#c6bcf9;}.cls-3{fill:#f4f2fd;}</style></defs><path class="cls-1" d="M733,1081.69v46.62c-.12.15-.34.29-.35.44a13.27,13.27,0,0,0,0,1.41,14.44,14.44,0,0,1-11.47,11.47,13.27,13.27,0,0,0-1.41,0c-.15,0-.29.23-.44.35H672.69c-.15-.12-.29-.34-.44-.35a13.27,13.27,0,0,0-1.41,0,14.44,14.44,0,0,1-11.47-11.47c0-.59,0-1.18,0-1.77,0-.16-.23-.3-.35-.45v-46.25c.12-.15.34-.29.35-.44a13.27,13.27,0,0,0,0-1.41,14.44,14.44,0,0,1,11.47-11.47,13.27,13.27,0,0,0,1.41,0c.15,0,.29-.23.44-.35h46.25c.15.12.29.34.45.35.59.05,1.18,0,1.77,0a14.44,14.44,0,0,1,11.47,11.47,13.27,13.27,0,0,0,0,1.41C732.66,1081.4,732.88,1081.54,733,1081.69Zm-35.51,28.49h19.45c.48-.37,1.2-.67,1.46-1.19a8.58,8.58,0,0,1,1.62-1.91c.62-.67,1.29-1.3,1.87-1.89a2.6,2.6,0,0,0-1-2.1l-3.52-3.57H710.2l-1.36,1.73h-1.25l-1.33-1.77h-4.32l-.91,1.76H699c.15-.92-.39-1.37-1.05-1.82h-3.29l-2.69-4.41H678.85a.24.24,0,0,1-.15-.1.13.13,0,0,1,0-.07l1.48-2.06-.39-1.42h-1.44l-2.41,3.64H671.7l-1.38,1,.56,1.2h2.39l.59.67c-.87,1.2-1.69,2.27-2.44,3.39s-1.47,2.33-2.24,3.57c1,1.42,1.9,2.76,2.83,4.09,1.08,1.52,2.18,3,3.27,4.56l3.71,5.18h.78l-.22-.22,1.41-.82-2-3h15.48c.55-.71,1.12-1.4,1.62-2.13S697.06,1110.9,697.49,1110.18Z" transform="translate(-659 -1068)"/><path class="cls-2" d="M721.16,1068v.37c-.59,0-1.18,0-1.77,0-.16,0-.3-.23-.45-.35Z" transform="translate(-659 -1068)"/><path class="cls-2" d="M670.84,1068.37V1068h1.85c-.15.12-.29.34-.44.35A13.27,13.27,0,0,1,670.84,1068.37Z" transform="translate(-659 -1068)"/><path class="cls-2" d="M732.63,1079.84H733v1.85c-.12-.15-.34-.29-.35-.44A13.27,13.27,0,0,1,732.63,1079.84Z" transform="translate(-659 -1068)"/><path class="cls-2" d="M733,1130.16h-.37a13.27,13.27,0,0,1,0-1.41c0-.15.23-.29.35-.44Z" transform="translate(-659 -1068)"/><path class="cls-2" d="M670.84,1142v-.37a13.27,13.27,0,0,1,1.41,0c.15,0,.29.23.44.35Z" transform="translate(-659 -1068)"/><path class="cls-2" d="M721.16,1141.63v.37h-1.85c.15-.12.29-.34.44-.35A13.27,13.27,0,0,1,721.16,1141.63Z" transform="translate(-659 -1068)"/><path class="cls-3" d="M697.49,1110.18c-.43.72-.88,1.53-1.4,2.3s-1.07,1.42-1.62,2.13H679l2,3-1.41.82.22.22H679l-3.71-5.18c-1.09-1.52-2.19-3-3.27-4.56-.93-1.33-1.84-2.67-2.83-4.09.77-1.24,1.47-2.43,2.24-3.57s1.57-2.19,2.44-3.39l-.59-.67h-2.39l-.56-1.2,1.38-1h4.21l2.41-3.64h1.44l.39,1.42-1.48,2.06a.13.13,0,0,0,0,.07.24.24,0,0,0,.15.1h13.08l2.69,4.41h3.29c.66.45,1.2.9,1.05,1.82H701l.91-1.76h4.32l1.33,1.77h1.25l1.36-1.73h7.19l3.52,3.57a2.6,2.6,0,0,1,1,2.1c-.58.59-1.25,1.22-1.87,1.89a8.58,8.58,0,0,0-1.62,1.91c-.26.52-1,.82-1.46,1.19Zm-20.29-12.93a79.79,79.79,0,0,0-5.38,7.62l5.38,7.51h16.43a11.77,11.77,0,0,1,3-4.46h19.45l2.84-2.83v-.63l-2.69-2.72h-4.57l-1.34,1.73h-4.39l-.88-1.72h-1.5l-.91,1.73H698l-1.37-1.83h-3.18l-2.81-4.4Z" transform="translate(-659 -1068)"/><path class="cls-1" d="M677.2,1097.25h13.42l2.81,4.4h3.18l1.37,1.83h4.66l.91-1.73h1.5l.88,1.72h4.39l1.34-1.73h4.57l2.69,2.72v.63l-2.84,2.83H696.63a11.77,11.77,0,0,0-3,4.46H677.2l-5.38-7.51A79.79,79.79,0,0,1,677.2,1097.25Zm10.26,3.37h-3.67c0,.67,0,1.28,0,1.88s0,1.18.06,1.7h3.61Zm0,8.42v-3.18l-.46-.46h-2.85c-.62,1.17-.19,2.42-.36,3.64Zm-8.39-8.45v3.67h1.69c.53,0,1.06,0,1.52-.06v-3.61Zm3.21,8.45v-3.31c-1.14,0-2.21,0-3.21,0V1109Z" transform="translate(-659 -1068)"/><path class="cls-3" d="M687.46,1100.62v3.58h-3.61c0-.52-.05-1.11-.06-1.7s0-1.21,0-1.88Z" transform="translate(-659 -1068)"/><path class="cls-3" d="M687.43,1109h-3.67c.17-1.22-.26-2.47.36-3.64H687l.46.46Z" transform="translate(-659 -1068)"/><path class="cls-3" d="M679,1100.59h3.21v3.61c-.46,0-1,0-1.52.06H679Z" transform="translate(-659 -1068)"/><path class="cls-3" d="M682.25,1109H679v-3.28c1,0,2.07,0,3.21,0Z" transform="translate(-659 -1068)"/></svg>
